# xmcd
# 
# Track frame offsets:
#     150
#     19803
#     41553
#     59215
#     80818
#     107230
#     127543
#     149468
#     169578
#     197958
# 
# Disc length: 3018
# 
# Revision: 3
# Processed by: cddbd v1.5.2PL0 Copyright (c) Steve Scherf et al.
# Submitted via: fre:ac v1.0.17
# 
DISCID=8f0bc80a
DTITLE=Little Feat - Let It Roll (2014-CBR)
DYEAR=1988
DGENRE=Warner Brothers
TTITLE0=Hate to Lose Your Lovin
TTITLE1=One Clear Moment
TTITLE2=Cajun Girl
TTITLE3=Hangin on to the Good Times
TTITLE4=Listen to Your Heart
TTITLE5=Let It Roll
TTITLE6=Long Time Till I Get Over You
TTITLE7=Business as Usual
TTITLE8=Changin' Luck
TTITLE9=Voices on the Wind
EXTD=
EXTT0=
EXTT1=
EXTT2=
EXTT3=
EXTT4=
EXTT5=
EXTT6=
EXTT7=
EXTT8=
EXTT9=
PLAYORDER=
